<svg id="Layer_1" data-name="Layer 1" xmlns="http://www.w3.org/2000/svg" viewBox="0 0 530 54.24"><title>vignelliassociates</title><path d="M9.24,0.81L16.8,25.65l0.63,2.28q0.33,1.2.63,2.22,0.3,1.2.6,2.34h0.12l0.6-2.4q0.3-1,.63-2.22t0.63-2.22l7.5-24.84H37L22.5,43.71H14.58L0.12,0.81H9.24Z"/><path d="M46.8,0.81V8.13H38.64V0.81H46.8Zm0,12.12V43.71H38.64V12.93H46.8Z"/><path d="M54.61,51.66a10,10,0,0,1-4.35-7h8.1A4.81,4.81,0,0,0,60.25,47a7.51,7.51,0,0,0,4.29,1q6.84,0,6.84-6.42V38.25H71.2A12,12,0,0,1,68,40.83a9.94,9.94,0,0,1-4.8,1,13.16,13.16,0,0,1-5-1A13,13,0,0,1,53.83,38a14.54,14.54,0,0,1-3.06-4.62,15.64,15.64,0,0,1-1.17-6.21,18.46,18.46,0,0,1,1-6.21,14.19,14.19,0,0,1,2.76-4.77,11.9,11.9,0,0,1,4.2-3,13.4,13.4,0,0,1,5.37-1,10.94,10.94,0,0,1,5,1.08,9.61,9.61,0,0,1,3.51,3h0.12V12.93h7.86V41.37a14.21,14.21,0,0,1-1,5.52,10.6,10.6,0,0,1-2.7,3.84A11.65,11.65,0,0,1,71,53.37a22.41,22.41,0,0,1-6.3.84Q58.3,54.21,54.61,51.66Zm13.23-17a6.08,6.08,0,0,0,2.25-1.8,7.74,7.74,0,0,0,1.29-2.64A12,12,0,0,0,71.79,27a11.29,11.29,0,0,0-.45-3.21A7.82,7.82,0,0,0,70,21.09a6.34,6.34,0,0,0-2.28-1.8,7.43,7.43,0,0,0-3.24-.66,6.22,6.22,0,0,0-5,2.25A9.27,9.27,0,0,0,57.58,27a9,9,0,0,0,1.89,6.12,6.4,6.4,0,0,0,5.07,2.16A7.59,7.59,0,0,0,67.83,34.65Z"/><path d="M92,17.13a10.77,10.77,0,0,1,3.75-3.78,11.72,11.72,0,0,1,9.72-.39,9.79,9.79,0,0,1,3.33,2.4A11.13,11.13,0,0,1,111,19a13.18,13.18,0,0,1,.78,4.62v20.1h-8.16V24.81a5.93,5.93,0,0,0-1.38-4.08,5,5,0,0,0-4-1.56,5.78,5.78,0,0,0-4.47,2A7.34,7.34,0,0,0,92,26.25V43.71H83.83V12.93h8v4.2H92Z"/><path d="M123.56,43.35a14.18,14.18,0,0,1-8.1-8.64,19.31,19.31,0,0,1-1-6.42,18.1,18.1,0,0,1,1.11-6.39,15.3,15.3,0,0,1,3.12-5.13,14.7,14.7,0,0,1,10.95-4.68,15,15,0,0,1,6.54,1.35,13.11,13.11,0,0,1,4.74,3.81,17.26,17.26,0,0,1,2.91,5.85,26.81,26.81,0,0,1,1,7.53H122.45a9.79,9.79,0,0,0,2.43,5.64,7.16,7.16,0,0,0,5.43,2,6.52,6.52,0,0,0,3.84-1,5.82,5.82,0,0,0,2.1-2.76h8a12.15,12.15,0,0,1-1.53,3.87,11.85,11.85,0,0,1-2.88,3.21,14,14,0,0,1-4.17,2.19,16.63,16.63,0,0,1-5.34.81A17.3,17.3,0,0,1,123.56,43.35Zm1.23-23.19A9.12,9.12,0,0,0,122.57,25h13.68a7.25,7.25,0,0,0-2-4.77,6.1,6.1,0,0,0-4.59-1.83A6.47,6.47,0,0,0,124.79,20.16Z"/><path d="M156,0.81v42.9h-8.16V0.81H156Z"/><path d="M168.56,0.81v42.9H160.4V0.81h8.16Z"/><path d="M181.11,0.81V8.13h-8.16V0.81h8.16Zm0,12.12V43.71h-8.16V12.93h8.16Z"/><path d="M217.35,0.81l15.12,42.9h-9.06l-2.88-9.12H205l-2.82,9.12h-8.82l14.94-42.9h9Zm1.08,27.12-3.84-12.36a18.8,18.8,0,0,1-.57-2q-0.27-1.14-.57-2.16-0.3-1.2-.6-2.46h-0.12q-0.36,1.26-.66,2.46-0.3,1-.57,2.16a19,19,0,0,1-.57,2l-3.84,12.36h11.34Z"/><path d="M236,41.64a10.72,10.72,0,0,1-4-7.89h7.56a5.45,5.45,0,0,0,2.19,3.9,7.91,7.91,0,0,0,4.53,1.2,7.61,7.61,0,0,0,4.17-1,3,3,0,0,0,1.47-2.58,2.3,2.3,0,0,0-.69-1.74,5.27,5.27,0,0,0-1.8-1.08,14.91,14.91,0,0,0-2.58-.69l-3-.57q-2.1-.42-4-1a12,12,0,0,1-3.48-1.56,7.79,7.79,0,0,1-2.46-2.64,8.24,8.24,0,0,1-.93-4.14,9.24,9.24,0,0,1,1-4.35,8.7,8.7,0,0,1,2.67-3.06,12,12,0,0,1,4-1.83,19.27,19.27,0,0,1,4.92-.6q6.12,0,9.42,2.76a10.71,10.71,0,0,1,3.78,7.44h-7.38a4.58,4.58,0,0,0-1.8-3.51,7.46,7.46,0,0,0-4.14-1,7.38,7.38,0,0,0-3.84.87A2.8,2.8,0,0,0,240,21.21a1.91,1.91,0,0,0,.72,1.59,6.19,6.19,0,0,0,1.89,1,16.8,16.8,0,0,0,2.7.63q1.53,0.24,3.15.6,1.92,0.42,3.87,1a12,12,0,0,1,3.51,1.59,8,8,0,0,1,2.52,2.76,9,9,0,0,1,1,4.41,8.84,8.84,0,0,1-1,4.17A9,9,0,0,1,255.69,42a12.89,12.89,0,0,1-4.08,2,18.75,18.75,0,0,1-5.25.69Q239.64,44.61,236,41.64Z"/><path d="M264.41,41.64a10.72,10.72,0,0,1-4-7.89H268a5.45,5.45,0,0,0,2.19,3.9,7.91,7.91,0,0,0,4.53,1.2,7.61,7.61,0,0,0,4.17-1,3,3,0,0,0,1.47-2.58,2.3,2.3,0,0,0-.69-1.74,5.27,5.27,0,0,0-1.8-1.08,14.91,14.91,0,0,0-2.58-.69l-3-.57q-2.1-.42-4-1a12,12,0,0,1-3.48-1.56,7.79,7.79,0,0,1-2.46-2.64,8.24,8.24,0,0,1-.93-4.14,9.24,9.24,0,0,1,1-4.35,8.7,8.7,0,0,1,2.67-3.06,12,12,0,0,1,4-1.83,19.27,19.27,0,0,1,4.92-.6q6.12,0,9.42,2.76A10.7,10.7,0,0,1,287,22.29h-7.38a4.58,4.58,0,0,0-1.8-3.51,7.46,7.46,0,0,0-4.14-1,7.38,7.38,0,0,0-3.84.87,2.8,2.8,0,0,0-1.44,2.55,1.91,1.91,0,0,0,.72,1.59,6.19,6.19,0,0,0,1.89,1,16.8,16.8,0,0,0,2.7.63q1.53,0.24,3.15.6,1.92,0.42,3.87,1a12,12,0,0,1,3.51,1.59,8,8,0,0,1,2.52,2.76,9,9,0,0,1,1,4.41,8.84,8.84,0,0,1-1,4.17A9,9,0,0,1,284.12,42a12.89,12.89,0,0,1-4.08,2,18.75,18.75,0,0,1-5.25.69Q268.07,44.61,264.41,41.64Z"/><path d="M298.4,43.35A15.26,15.26,0,0,1,290,34.74,18,18,0,0,1,290,22a15.26,15.26,0,0,1,8.37-8.61,17.6,17.6,0,0,1,13.08,0A15.26,15.26,0,0,1,319.85,22a18,18,0,0,1,0,12.78,15.26,15.26,0,0,1-8.37,8.61A17.59,17.59,0,0,1,298.4,43.35Zm12.33-7.74a12.05,12.05,0,0,0,2-7.26,12.19,12.19,0,0,0-2-7.29,7.4,7.4,0,0,0-11.58,0,12.19,12.19,0,0,0-2,7.29,12.05,12.05,0,0,0,2,7.26A7.45,7.45,0,0,0,310.73,35.61Z"/><path d="M331.55,43.35a14.59,14.59,0,0,1-5-3.45,15.38,15.38,0,0,1-3.15-5.16,18.1,18.1,0,0,1-1.11-6.39A18.56,18.56,0,0,1,323.42,22a15.23,15.23,0,0,1,3.09-5.16,14.51,14.51,0,0,1,4.83-3.45,15.43,15.43,0,0,1,6.36-1.26,16.28,16.28,0,0,1,5.4.84,13.38,13.38,0,0,1,4.17,2.31,11.81,11.81,0,0,1,2.88,3.54,14.79,14.79,0,0,1,1.53,4.59h-8A6.17,6.17,0,0,0,341.81,20a5.33,5.33,0,0,0-3.75-1.35,6.4,6.4,0,0,0-5.58,2.61,12.05,12.05,0,0,0-1.86,7.11,12.57,12.57,0,0,0,1.77,7,6.18,6.18,0,0,0,5.55,2.67,6.44,6.44,0,0,0,4.14-1.29,6,6,0,0,0,2-3.93H352a12.25,12.25,0,0,1-4,8.31,13.21,13.21,0,0,1-4.26,2.52,15.75,15.75,0,0,1-5.55.93A16.38,16.38,0,0,1,331.55,43.35Z"/><path d="M362.79,0.81V8.13h-8.16V0.81h8.16Zm0,12.12V43.71h-8.16V12.93h8.16Z"/><path d="M386,42.27a15.54,15.54,0,0,1-.36-2h-0.12a10.84,10.84,0,0,1-1.35,1.65,7.14,7.14,0,0,1-1.8,1.29,10.66,10.66,0,0,1-2.49.87,15.44,15.44,0,0,1-3.42.33,12,12,0,0,1-7.74-2.4,8.46,8.46,0,0,1-3-7,8.72,8.72,0,0,1,1-4.26,8.28,8.28,0,0,1,2.64-2.88,13.35,13.35,0,0,1,3.93-1.77,36.73,36.73,0,0,1,4.83-1A34.75,34.75,0,0,0,383.69,24a2.32,2.32,0,0,0,1.8-2.34A3.19,3.19,0,0,0,384.2,19a6.31,6.31,0,0,0-3.87-1A7.31,7.31,0,0,0,376,19a4.23,4.23,0,0,0-1.62,3.27h-7.26a9.89,9.89,0,0,1,.9-3.87,9.28,9.28,0,0,1,2.46-3.21A12.4,12.4,0,0,1,374.57,13a18.05,18.05,0,0,1,5.82-.84q6.9,0,9.93,3t3,8.37V39.15q0,3.48,1.08,4.26v0.3h-7.86A4.09,4.09,0,0,1,386,42.27Zm-4.47-4a7.42,7.42,0,0,0,2.28-1.32A5.47,5.47,0,0,0,385.19,35a5.22,5.22,0,0,0,.48-2.19V28.23a9.47,9.47,0,0,1-2.61,1q-1.53.39-3.09,0.75a16.29,16.29,0,0,0-4.8,1.68,3.38,3.38,0,0,0-1.56,3.12,3.35,3.35,0,0,0,1.32,3,6.23,6.23,0,0,0,3.48.87A8.68,8.68,0,0,0,381.5,38.22Z"/><path d="M399.1,12.93V3.33h8v9.6h5.28v5.4h-5.28V34.65a2.9,2.9,0,0,0,.84,2.4,3.49,3.49,0,0,0,2.22.66h1.56a5.92,5.92,0,0,0,.84-0.06v6q-0.6.06-1.32,0.06t-1.62.06h-2.16a13.53,13.53,0,0,1-3-.33,7.45,7.45,0,0,1-2.67-1.17,6.23,6.23,0,0,1-2-2.28,7.74,7.74,0,0,1-.75-3.6V18.33h-4.26v-5.4h4.26Z"/><path d="M422.12,43.35a14.18,14.18,0,0,1-8.1-8.64,19.31,19.31,0,0,1-1-6.42,18.1,18.1,0,0,1,1.11-6.39,15.3,15.3,0,0,1,3.12-5.13,14.7,14.7,0,0,1,10.95-4.68,15,15,0,0,1,6.54,1.35,13.11,13.11,0,0,1,4.74,3.81,17.26,17.26,0,0,1,2.91,5.85,26.81,26.81,0,0,1,1,7.53H421a9.79,9.79,0,0,0,2.43,5.64,7.16,7.16,0,0,0,5.43,2,6.52,6.52,0,0,0,3.84-1,5.82,5.82,0,0,0,2.1-2.76h8a12.15,12.15,0,0,1-1.53,3.87,11.85,11.85,0,0,1-2.88,3.21,14,14,0,0,1-4.17,2.19,16.63,16.63,0,0,1-5.34.81A17.3,17.3,0,0,1,422.12,43.35Zm1.23-23.19A9.12,9.12,0,0,0,421.13,25h13.68a7.25,7.25,0,0,0-2-4.77,6.1,6.1,0,0,0-4.59-1.83A6.47,6.47,0,0,0,423.35,20.16Z"/><path d="M448.32,41.64a10.72,10.72,0,0,1-4-7.89h7.56a5.45,5.45,0,0,0,2.19,3.9,7.91,7.91,0,0,0,4.53,1.2,7.61,7.61,0,0,0,4.17-1,3,3,0,0,0,1.47-2.58,2.3,2.3,0,0,0-.69-1.74,5.27,5.27,0,0,0-1.8-1.08,14.91,14.91,0,0,0-2.58-.69l-3-.57q-2.1-.42-4-1a12,12,0,0,1-3.48-1.56,7.79,7.79,0,0,1-2.46-2.64,8.24,8.24,0,0,1-.93-4.14,9.24,9.24,0,0,1,1-4.35,8.7,8.7,0,0,1,2.67-3.06,12,12,0,0,1,4-1.83,19.27,19.27,0,0,1,4.92-.6q6.12,0,9.42,2.76a10.7,10.7,0,0,1,3.78,7.44h-7.38a4.58,4.58,0,0,0-1.8-3.51,7.46,7.46,0,0,0-4.14-1,7.38,7.38,0,0,0-3.84.87,2.8,2.8,0,0,0-1.44,2.55,1.91,1.91,0,0,0,.72,1.59,6.19,6.19,0,0,0,1.89,1,16.8,16.8,0,0,0,2.7.63q1.53,0.24,3.15.6,1.92,0.42,3.87,1a12,12,0,0,1,3.51,1.59,8,8,0,0,1,2.52,2.76,9,9,0,0,1,1,4.41,8.84,8.84,0,0,1-1,4.17A9,9,0,0,1,468,42a12.89,12.89,0,0,1-4.08,2,18.75,18.75,0,0,1-5.25.69Q452,44.61,448.32,41.64Z"/></svg>