<svg viewBox="0 0 79 44" xmlns="http://www.w3.org/2000/svg" xmlns:xlink="http://www.w3.org/1999/xlink" width="79"  height="44" >
      <title>Frank</title>
      <path d="M18.4597438,0.553791657 C19.0213989,0.152790131 19.7077317,-0.317753375 20.3616241,0.294024876 C20.6313154,0.54662238 20.8385468,0.869478793 21.1053329,1.1309184 C21.3779293,1.39833241 21.6652934,1.65045197 21.9308691,1.92503525 C22.5455425,2.56095007 22.8329066,3.24442108 22.7317118,4.10784093 C22.6319696,4.95763916 22.4194122,5.77445871 22.3525946,6.63381598 C22.2848087,7.50368818 22.2538208,8.37810092 22.13689,9.24080384 C22.068862,9.74265319 21.8977024,10.0669435 21.6255902,10.4827615 C21.5072069,10.6634273 21.3914865,10.8768327 21.2440521,11.0347958 C21.0971018,11.1920419 21.0409363,11.1879793 20.8012645,11.1734018 C20.1280047,11.1325369 19.5380247,10.784588 19.071512,10.2901469 C18.8821955,10.0894072 18.7354874,9.95677558 18.7403292,9.69390211 C18.7439606,9.49698599 18.7931054,9.29003287 18.8194935,9.09670139 C18.8783221,8.66797866 18.9422345,8.23997286 19.0267249,7.81674658 C19.1097627,7.40068957 19.2923006,6.97101094 19.2591339,6.53774767 C19.2295986,6.14797801 19.0509342,5.77589257 19.0247882,5.38540598 C19.0080838,5.13519824 19.1114573,4.71101605 18.8976895,4.49713264 C18.6006417,4.19984665 18.1883578,4.46821656 17.9806423,4.66584961 C17.8332078,4.80612845 17.7533172,4.91749121 17.6584169,5.04749409 C16.7401592,7.33688301 14.9556938,9.22598734 14.0921491,11.6907846 C13.9967645,11.9730151 13.9156635,12.2638487 13.8447303,12.5623296 C13.5961011,13.6066542 13.470455,14.7410727 13.2811385,15.8950872 C13.2339304,16.1837701 13.1823647,16.4734088 13.1235361,16.7623307 C13.0920641,18.195469 11.7276295,19.1403796 11.8060676,20.5563117 C13.5772179,20.5551168 15.3486103,20.553922 17.1083822,20.5104284 C17.4015565,20.5030201 17.6397757,20.4676517 17.8985728,20.4353899 C19.3632338,20.5512932 20.7276683,19.6061436 21.6987022,20.077643 C23.220497,21.9645966 21.4621776,24.3256783 22.0393266,26.2133487 C23.3514692,24.3244834 25.1620806,22.9071174 26.0459611,20.8815579 C26.2025951,20.7410401 26.3693969,20.6141439 26.5526611,20.5061268 C26.7361674,20.3978707 26.9358939,20.3082548 27.1578929,20.2427754 C27.7863656,20.0568521 28.7087389,19.9540925 29.2544158,20.4769717 C30.4329232,21.6063717 31.0318606,23.1104859 30.9986938,24.6870098 C29.7434431,24.5412345 28.5286219,24.3132515 27.3392204,24.7665888 C26.333083,25.1499061 25.4378242,25.8814112 24.7243769,26.6645352 C24.0629796,27.3905439 23.6158344,28.2984133 23.1958035,29.1838189 C22.7324381,30.1602744 21.8197485,31.6044056 21.3312054,32.5679563 L21.3312054,32.5679563 L20.4470829,34.3031602 C20.181023,34.8234107 19.9573293,35.4062729 19.6363143,35.8918718 C19.1279196,36.6604183 18.1033833,36.4658919 17.3463594,36.1387339 C16.2283752,35.6555247 15.8524052,34.6762015 16.0988556,33.5840818 C16.337559,32.5263745 16.9653054,30.9577369 17.2388702,29.8950111 C17.5322866,28.7553352 17.8419231,27.6218726 18.1307398,26.4824356 C18.1885999,26.2544526 18.2454917,26.0264696 18.3014151,25.7980087 C18.1820634,24.8000454 19.5728861,24.3271121 17.9065619,23.5234362 C17.6114509,23.5124434 17.3352231,23.4818544 17.0030719,23.4613025 C15.0106488,23.3384689 13.2845278,22.8552597 11.2674113,23.3745543 C11.266685,23.7062528 11.253612,24.0331718 11.2294027,24.3557892 C11.0596957,26.6141113 10.2866937,29.3209911 9.57445692,31.1955179 C9.5086077,31.4784653 9.44348476,31.7621297 9.37860391,32.046033 C8.75642563,33.6498001 8.56396192,35.3106825 8.27926089,37.0308309 C8.23205281,37.3176019 8.1925917,37.5630302 8.14659408,37.8206462 C8.02990539,38.0818468 7.93791016,38.3624045 7.86286142,38.6537161 C7.78999151,38.9400092 7.75319342,39.1895 7.72559485,39.4492668 C7.73745739,40.8551619 7.84228354,42.7430713 6.4776069,43.687982 C3.72234971,45.1060648 2.56805164,41.3307239 3.82669167,39.575446 C3.91965527,39.2891529 4.02133421,39.0133748 4.10364574,38.7122652 C4.26851087,38.109568 4.44669111,37.5403275 4.58831535,37.0650044 C4.63407088,36.7497953 4.68031058,36.4302845 4.73236052,36.1091009 C4.94031816,34.8238886 5.23930266,33.5104772 5.9159518,32.2995864 C6.00939959,31.987245 6.09485832,31.660087 6.17765403,31.3245648 C6.58364351,28.5839895 7.37117111,25.7514084 8.15845662,22.9188273 C7.19638017,22.604813 6.26940717,22.9200221 5.29909956,23.1116808 C5.05652266,23.159715 4.81709297,23.2094219 4.57112677,23.238338 C2.51697008,23.3946282 -0.290821232,23.8685174 0.024383483,21.0361753 C1.56869291,20.6136659 4.24890136,20.5613302 6.12899339,20.593592 C6.41151559,20.5759077 6.69331151,20.5620471 7.01916831,20.5615692 L7.01916831,20.5615692 L7.98487615,20.5613302 C8.49399713,20.5598964 8.71236476,20.4554639 8.84406319,19.9368862 C8.91330171,19.6639758 8.98036139,19.3903484 9.04548433,19.1162431 C9.11084937,18.8421377 9.17451975,18.5675545 9.23673758,18.2924932 C9.6548317,15.837733 9.52385954,13.4776072 10.6662951,11.6508756 C10.7510275,11.3970832 10.8374546,11.1478314 10.9190399,10.8847189 C10.9967516,10.6158711 11.078579,10.348696 11.1657323,10.0836718 C11.2099143,9.94936732 11.2398127,9.83035734 11.2648088,9.71654507 L11.334471,9.38060473 C11.9646383,6.39603498 13.7229577,4.03471431 15.8616047,2.48423881 C16.0543105,2.30906949 16.254037,2.13891866 16.4607842,1.97713199 C16.8004403,1.71186877 17.1601901,1.46715747 17.5405177,1.26068231 C17.8828368,1.07523703 18.1416339,0.781057718 18.4597438,0.553791657 Z M75.9616466,0.000702224992 L76.1486439,0.0173901355 C76.573759,0.0821190429 76.9942977,0.296203911 77.3924366,0.468574594 C77.7086837,0.605224509 78.0714164,0.738038638 78.3110705,1.02500346 C78.8132603,1.62650283 78.366468,2.62308826 78.1525857,3.27157602 C77.8146614,4.29381328 77.206494,5.18491458 76.6766055,6.08560533 C76.3227846,6.68734444 75.8345646,7.29675511 75.6216458,7.98431995 C75.3114202,8.9861796 75.1100626,10.0321508 74.8301852,11.0452781 C74.685911,11.5664656 74.5500669,11.8249018 74.223222,12.2415642 C73.6039751,13.0312568 72.9514898,13.7981745 72.4066681,14.6588292 C71.9052009,15.4509193 71.4511829,16.2832851 70.9232213,17.0537988 C70.4446357,17.7523915 69.9410008,18.6703434 69.9939897,19.6005217 C70.0652837,20.8569817 71.1592625,20.3161358 71.8327026,20.0461922 C72.7031648,19.6968959 73.5659195,19.3027687 74.4592632,19.0349829 C75.1948447,18.8146648 76.1344333,18.3963243 76.884948,18.6938375 C77.6104135,18.9815216 78.2980642,19.6932998 78.7330544,20.4007628 C79.2879921,21.3043304 78.8626362,22.5862025 78.4948455,23.4928867 C78.2860213,24.0083206 77.9673656,24.4374493 77.6422068,24.8608243 C77.3582348,25.2309777 77.1029249,25.6212691 76.7332072,25.8856986 C75.9434326,26.4514772 74.9457972,26.4891159 74.0452277,26.4255857 C73.0379579,26.3543839 72.0302064,26.4267843 71.0287173,26.26688 C71.8189736,27.2368546 72.3630727,28.4108452 73.0374762,29.4795914 C73.43417,30.108181 73.8527818,30.7195096 74.2653722,31.3344342 C74.6998808,31.981963 75.1360753,32.6280534 75.5725107,33.2739041 C75.88659,33.7389933 76.4210548,34.3014155 76.6135006,34.8374668 C76.9314337,35.7230541 76.242097,36.6378894 75.5390314,36.9116687 C74.5291122,37.3050766 73.5437605,36.3015388 72.8960923,35.5341416 C72.3242945,34.8566457 72.0246667,34.027876 71.5434316,33.2892472 C71.1758817,32.724907 70.8056824,32.163204 70.4378917,31.5988638 C70.0096454,30.9415058 69.5816401,30.2831888 69.1647142,29.6160016 C68.8212502,29.0660456 68.5461899,28.3931047 68.0066671,28.067782 C67.8144621,28.5417415 67.6297237,29.0231327 67.4965291,29.5232235 C67.3903105,29.9226248 67.2202645,30.2769557 67.1653488,30.6964949 C67.0261326,31.7628437 66.9442408,32.8385422 66.8134547,33.9063295 C66.7043458,34.7964718 66.4817927,35.9158024 65.6043456,36.1903009 C64.9099509,36.4075024 64.135832,35.796893 63.9014768,35.0575451 C63.6343649,34.2167885 63.9744569,33.037284 64.1042796,32.1854995 C64.1830403,31.6693464 64.2815513,31.1527138 64.4537651,30.6650894 C64.5982801,30.2560986 64.7914485,29.8794722 64.8933316,29.4510627 C64.9822084,29.0787517 65.1541813,28.3722476 64.6047833,28.3806384 C64.3027469,28.3851934 64.0050459,28.7603813 63.8092281,28.9878915 C63.098455,29.8137844 62.4365761,30.7044062 61.7549469,31.5617046 C61.1691793,32.2986552 60.5978632,33.0607781 59.9422467,33.7195746 C59.5877031,34.0755836 59.2088329,34.3778915 58.810694,34.6650961 C58.4884255,34.8976407 58.19506,35.2097779 57.8515959,35.3996493 C57.0201528,35.8592246 56.3007088,35.1273084 56.1465594,34.2033632 C55.9639888,33.1077665 56.5239845,32.2334468 56.5466252,31.1541522 C56.5687842,30.1077015 56.676207,29.0614906 56.7265464,28.0131221 C56.7600257,27.3114128 56.8455304,26.0235472 55.9820531,25.9806344 C55.3119851,25.9475507 54.4523615,26.5557627 53.9487267,27.018934 C53.3068391,27.608926 52.9597621,28.5021849 52.5979928,29.325201 C52.3792934,29.8233738 52.1615574,30.3261017 52.0358294,30.8662284 C51.9365957,31.2917611 51.9101013,31.7333561 51.7988247,32.1550529 C51.5545943,33.0780392 50.9524484,33.6632365 50.464951,34.4128931 C50.0003352,35.1273084 49.4499737,35.8889519 48.6657388,36.1433126 C47.9253402,36.3835287 47.2632205,35.7499046 47.0180266,34.9777128 C46.7374266,34.0947625 47.2384121,33.3002751 47.4248365,32.4655119 C47.5175669,32.0507675 47.5862116,31.4490284 47.0238072,31.5262236 C46.6384338,31.5789656 46.4368354,32.0308693 46.2318649,32.351637 C45.9876345,32.7337773 45.6506736,32.982624 45.3746499,33.3278448 C45.1395721,33.6212825 44.9312296,33.8957811 44.6424404,34.1285654 C44.0374041,34.6157103 43.3449363,34.955657 42.6700511,35.2929665 C41.9715618,35.6422629 41.2812616,35.8383675 40.5695251,35.4233833 C40.2255793,35.2229634 39.8898228,34.9261694 39.6718459,34.558653 C39.4690432,34.2165487 39.4666346,33.7768717 39.2638318,33.442439 C38.8013837,32.6798365 37.7943548,33.5251481 37.3116746,33.8571834 C36.5529707,34.3790902 35.8995219,34.774416 35.0230382,34.9700412 C33.6901279,35.2673147 31.6963022,36.1605736 30.6957765,34.6284164 C30.2892075,34.0058202 30.0416051,32.9102235 30.0081258,32.1519363 C29.9609176,31.0776762 30.130241,29.8955346 30.2367004,28.8265487 C30.3359341,27.8297235 30.5021264,26.7151876 30.992514,25.8701157 C31.4079947,25.1535428 31.6057395,24.3578567 32.1943974,23.7805707 C32.7772747,23.2090384 33.5446495,22.9242312 34.2132723,22.5082881 C34.6309208,22.2484135 35.0309866,21.9717574 35.394201,21.6183855 C35.6950331,21.325667 35.9551602,21.0044198 36.3010328,20.7761905 C37.0122876,20.306786 38.0041425,19.8623142 38.8319727,19.8973158 C39.6405343,19.9315981 40.5801229,20.0262941 41.328229,20.3950091 C42.7965017,21.1190139 43.1252734,23.3178789 43.0725254,24.9612739 C43.037601,26.054713 42.8456368,27.1294526 42.9183761,28.2267274 C42.9564317,28.7949034 42.9646209,29.3745867 43.017128,29.9401256 C43.046031,30.2527422 43.0973339,30.6986525 43.4008154,30.8118082 C43.7777588,30.9520542 44.2108222,30.514295 44.5017791,30.3054843 C44.7804522,30.1053042 45.0798392,29.9444409 45.3580307,29.7433018 C45.9943785,29.2832471 46.3587972,28.4108452 46.8559289,27.7724264 C47.4751759,26.977939 48.0867153,26.1772185 48.694401,25.3709839 C49.2792052,24.595196 49.730092,23.9558182 49.9162756,22.9369373 C50.0509154,22.2007059 50.277804,21.0480519 50.9078895,20.6486505 C51.4474123,20.3065463 52.3202831,20.4933012 52.7861032,20.9140391 C53.2740823,21.3549149 53.2731189,22.3507811 54.0173713,22.3831455 C54.4856,22.4035231 55.0085035,22.1762528 55.4608356,22.0573434 L55.4608356,22.0573434 L56.7462968,21.7197941 C57.5986946,21.4970787 58.6702736,21.1432273 59.5438669,21.3297425 C60.4075851,21.5141 60.6005127,22.3021145 60.6241168,23.1960927 C60.6520564,24.2607633 60.3297878,25.2187511 60.2984762,26.2635237 C60.2811344,26.834097 59.975726,28.7344898 60.8933965,28.5381454 C61.2698581,28.4575939 61.5514216,27.9587018 61.7901122,27.6602296 C62.084682,27.2922338 62.3587789,26.9148883 62.603491,26.5020617 C63.1073667,25.6519554 63.6570056,24.8696945 64.2533709,24.1025371 C64.8256504,23.3653468 65.299178,22.5298644 65.6149434,21.6111934 C65.9502182,20.635465 66.0812452,19.590213 66.2679104,18.5701334 C66.6532839,16.4618889 66.9307527,14.3526855 67.5297675,12.3053341 C67.8568532,11.186483 68.0822967,10.0280753 68.3330302,8.88501071 C68.5743703,7.78366034 68.7945149,6.67032313 69.0878804,5.58503512 C69.369203,4.54409839 69.7326583,3.53624533 70.1336875,2.54805068 C70.4195864,1.84370427 70.7021133,1.13312471 71.318229,0.734922061 C71.945906,0.329047838 72.6764295,0.345110196 73.3741962,0.321855737 C73.8768677,0.305313905 74.3805025,0.278703132 74.8769117,0.179452141 C75.3078073,0.0931469308 75.7066688,-0.0497361388 76.1486439,0.0173901355 Z M39.7029166,24.4199485 C39.305982,23.7453294 38.4757432,23.8479367 37.8649263,23.9049941 C36.5247903,24.0306161 35.3012297,24.4259419 34.4293223,25.6761688 C33.4584222,27.0683197 33.1840845,28.8874418 33.2503205,30.6195394 C33.2780192,31.3411468 33.6527949,31.6504072 34.2795084,31.6062956 C35.0076233,31.5552317 35.8754361,31.239019 36.5199731,30.8456111 C37.2112367,30.4239142 37.743052,29.7003889 38.2893188,29.0737172 C38.7980117,28.4897186 39.5579199,27.8572932 39.6713642,26.9887272 C39.7657807,26.2654416 40.0935889,25.0847383 39.7029166,24.4199485 Z M75.8612999,22.0031629 C75.5250616,21.6917449 75.1035594,21.690786 74.6948227,21.7516791 C73.7831738,21.8871303 72.8300971,22.2117338 72.105836,22.8873118 C71.7279292,23.2397247 71.694209,23.5930966 72.2166308,23.7460486 C72.7185797,23.8927675 73.2619562,23.9354406 73.7745029,24.0267803 C74.554884,24.1655879 75.4518406,23.9630103 75.9704087,23.2255803 C76.2594388,22.8146716 76.2156026,22.3316021 75.8612999,22.0031629 Z M74.301501,3.77022834 C73.8142445,3.2296221 72.700997,3.51730613 72.2891292,4.04161028 C71.4678021,5.08686227 71.1655248,6.63244473 70.88637,7.95267471 C70.6341912,9.1456045 70.3682836,10.3637066 70.2382201,11.5834869 C70.2150976,11.9991904 70.0780492,12.7598749 70.6650211,12.6030871 C70.9896982,12.5165422 71.2664445,12.1614921 71.4593721,11.8670954 C71.8435412,11.2806995 72.1287175,10.601046 72.4069089,9.94488664 C72.947636,8.6699669 73.3908154,7.33607193 73.968153,6.08200928 C74.2359875,5.50112727 74.8395786,4.36669324 74.301501,3.77022834 Z" fill="#515F44"></path>
    </svg>