<?xml version="1.0" encoding="UTF-8"?>
<svg id="living-paintings" xmlns="http://www.w3.org/2000/svg" version="1.1" viewBox="0 0 211.3 81.4">
  <!-- Generator: Adobe Illustrator 30.3.0, SVG Export Plug-In . SVG Version: 2.1.3 Build 182)  -->
  <defs>
    <style>
      .st0 {
        fill: #005b97;
      }

      .st0, .st1 {
        stroke: #231f20;
        stroke-miterlimit: 10;
      }

      .st2 {
        fill: #fff;
      }

      .st1 {
        fill: #eb462e;
      }

      .st3 {
        fill: #231f20;
      }

      .st4 {
        isolation: isolate;
      }
    </style>
  </defs>
  <rect class="st2" x="169" y="55.8" width="29.4" height="23.1"/>
  <path class="st0" d="M41.1,70.2c-2.1.2-3.9-.6-4.9-2.2-1.6,2-3.6,3.3-5.8,3.7-4.7.7-9.5,1.6-14.1,2.7-2.1.5-3.9-.1-4.7-1.7-.5-1-1-3.1.9-6.8.6-1.2.9-1.8,1.6-3.1,2-3.9,4.4-5.6,6.1-6.3,1.2-1.3,3.4-4.7,4.8-6.3,11.9-13.2,24.1-26.2,36.6-39,1.5-1.6,3.4-2.6,5.4-2.8,2.2-.2,3.2-.3,5.4-.5,1.4-.1,2.8.3,3.7,1.1.7.6,1.4,1.8.9,3.6,0,0,0,0,0,.1-3.7,12.7-7,25.6-10.1,38.5-.2.8-.4,1.9-.6,2.8.3.3.6.6.8,1,1.1,1.8,1.2,3.9,0,6.3-.5,1-.7,1.5-1.2,2.6-2,4.3-5.6,5-7,5-5.9.3-11.7.7-17.6,1.3h0Z"/>
  <path class="st0" d="M91.6,9.7c4,.1,7.9.1,11.9.4,1.5,0,2.9.8,3.8,2.1.7,1,1.4,2.6.7,4.8,0,0-.6,1.8-.6,1.9-.7,2-2.2,3.1-4.2,3.1-.3.3-.9,1.1-1.7,3.1,0,0-1.8,4.3-1.8,4.4,0,.2-.1.3-.2.5-1.8,4.6-3.9,9-5.8,13.6,0,0-3.5,6.9-3.6,6.8-.2.4-.4.7-.5,1,.4.3.7.7,1,1.1.6.8,1.4,2.7.3,4.9,0,0-.9,1.9-.9,1.8-1.5,3.1-4.6,3.1-5.8,2.9,0,0-8.1-.9-8.2-1,0,0-6.8-.6-6.9-.6-1.9,0-3.5-1-4.4-2.4-.7-1.1-1.2-2.9,0-5.3,0,0,1-2,1-2.1,1.1-2.2,3.1-3.4,5.4-3.4.2-.2.6-.5,1-1.2.3-.5.8-1.1,1.2-2,4.4-8.1,8.8-16.2,13.2-24.3.2-.3.3-.6.4-.9-.3-.3-.6-.6-.9-.9-.3-.5-.7-1.2-.6-2.2,0-.5.2-1.1.5-1.7,0,0,.8-1.5.8-1.5,1.3-2.5,3.7-2.8,4.7-2.7h0Z"/>
  <path class="st1" d="M109.5,73.1c-2.1.2-4.3,0-5.8-.7-1,.9-2.8,1.6-4.9,1.8-4.8.5-9.6,1-14.3,1.5-2.2.2-4.3,0-5.8-.9-.9-.5-2.3-1.6-1.4-3.4.3-.6.4-.9.7-1.5.8-1.9,2.9-2.5,4.6-2.7.8-.6,2.1-2.3,2.9-3.3,7.5-10.3,13.6-21.1,18.6-32.8.6-1.7,2.1-3.2,4.2-3.5,2.3-.3,3.4-.5,5.7-.9,1.5-.3,3.3.4,4.7,1.1,1.1.5,2.5,1.5,3,3.2,0,0,0,0,0,.1,2.6,10,5.2,20.1,7.5,30.2.1.5.3,1.1.4,1.7.4.1.8.2,1.1.4,1.8.8,2.5,1.9,2.2,3.2-.1.6-.2.9-.4,1.4-.6,2.3-4,2.9-5.4,3.1-5.9.6-11.7,1.3-17.6,1.9h0Z"/>
  <path class="st1" d="M148.7,29.8c-.6.2-1.4,1.4-1.4,3.6,0,1,.3,1.4.4,1.5.1,0,.6.2,2.4.3.9,0,2,0,3.1.1,1.1,0,2.4.2,3.7.3-.9-.4-1.7-1-2.4-1.8,0,0,0,0,0,0-1.1-1.4-2-2.3-2.8-2.9s-1.3-.9-1.6-1c-.4-.2-.6-.2-1.3,0h0ZM150.4,69.2c-2.4.3-4.9.3-7.3,0-.9.6-2.3,1-4,1.2-1.1.1-1.7.2-2.9.3-2,.2-4.1,0-5.7-.5-1.2-.4-2.6-1.1-3.1-2.4-1.4-3.3-2.7-6.7-4-10-.3-.7-.3-1.3-.2-1.7.1-.6.6-1.8,2.1-2.8,1-.7,1.6-1,2.6-1.7,0,0,0,0,.1,0,.4-.3,1.4-.9,3.1-1.2,1.9-.4,6-.3,7.9,2.6,0,0,0,0,0,0,0,0,0,0,0,0,1.8,3.1,4.7,6.2,8.5,5.7,2.1-.3,3.8-2,4-4.2,0-1,0-1.5-.1-1.7-.9-.3-3.6-.5-5.3-.7-8.4-1-18.3-4.2-17.6-14.8.6-8.9,7.2-17.4,15.2-21.3,1.9-.9,3.9-1.5,5.9-1.6.6-1.5,1.6-2.7,3-3.5.6-.4.9-.6,1.6-1,2.2-1.4,4.1-1.2,5.1-.9,1.7.4,3,1.6,3.7,3.6,1.6,4.1,3.1,8.3,4.7,12.4.3.8.4,1.5.5,2.2.1,1.5-.3,2.9-1.2,4.2-.7.9-1.1,1.4-1.8,2.3-.5.6-1.4,1.5-2.8,2.1-.8.3-1.8.5-2.7.5,7.1,1.5,11.9,7.8,11.9,14.9,0,12-11.1,16.5-21.1,18.1h0Z"/>
  <g class="st4">
    <g class="st4">
      <path class="st3" d="M171.6,76.6v-2.5l4.1-3.3c2.8-2.3,4.1-3.7,4.1-6.2s-.9-2.7-2.6-2.7-2.7,1.1-2.7,2.8,0,1,.2,1.5l-2.9-.5c-.1-.4-.2-.9-.2-1.4,0-3.4,2.2-5.5,5.8-5.5s5.5,2.3,5.5,5.6-1.1,4.5-3.4,6.5c-.8.8-2,1.7-3.3,2.6,1.1,0,2.1,0,6.7,0v3.1h-11.4Z"/>
      <path class="st3" d="M192,64.8c3,0,4.9,2.4,4.9,6s-2.1,6.1-5.7,6.1-6.2-3.3-6.2-8.8,2.3-9.3,6.6-9.3,4.2,1.4,5.1,3.8l-2.6,1.5c-.4-1.4-1.4-2.2-2.5-2.2-1.7,0-3.4.8-3.6,5,.7-1.2,2.2-2.1,4.1-2.1ZM191.2,74c1.7,0,2.9-1.1,2.9-3.1s-1.3-3.2-2.9-3.2-3,1-3,3,1.3,3.3,3,3.3Z"/>
    </g>
  </g>
</svg>