<?xml version="1.0" encoding="UTF-8"?>
<svg id="exhibition" xmlns="http://www.w3.org/2000/svg" version="1.1" viewBox="0 0 224.1 77.7">
  <!-- Generator: Adobe Illustrator 30.3.0, SVG Export Plug-In . SVG Version: 2.1.3 Build 182)  -->
  <defs>
    <style>
      .st0 {
        fill: #535783;
      }

      .st0, .st1 {
        stroke: #231f20;
      }

      .st2 {
        fill: #fff;
      }

      .st1 {
        fill: #eb462e;
        stroke-miterlimit: 10;
      }

      .st3 {
        fill: #231f20;
      }

      .st4 {
        isolation: isolate;
      }
    </style>
  </defs>
  <rect class="st2" x="-.4" y="31.3" width="225.1" height="21.9"/>
  <g id="pulloutAI">
    <path class="st0" d="M41.8,67.3c-2.1.2-3.9-.6-4.9-2.2-1.6,2-3.6,3.3-5.8,3.7-4.7.7-9.5,1.6-14.1,2.7-2.1.5-3.9-.1-4.7-1.7-.5-1-1-3.1.9-6.8.6-1.2.9-1.8,1.6-3.1,2-3.9,4.4-5.6,6.1-6.3,1.2-1.3,3.4-4.7,4.8-6.3,11.9-13.2,24.1-26.2,36.5-39,1.5-1.6,3.4-2.6,5.4-2.8,2.2-.2,3.2-.3,5.4-.5,1.4-.1,2.8.3,3.7,1.1.7.6,1.4,1.8.9,3.6,0,0,0,0,0,.1-3.7,12.8-7,25.6-10.1,38.5-.2.8-.4,1.9-.6,2.8.3.3.6.6.8,1,1.1,1.8,1.2,3.9,0,6.3-.5,1-.7,1.5-1.2,2.6-2,4.3-5.6,5-7,5-5.9.3-11.7.7-17.6,1.3Z"/>
    <path class="st0" d="M92.3,6.8c4,.1,7.9.1,11.9.4,1.5,0,2.9.8,3.8,2.1.7,1,1.4,2.6.7,4.8,0,0-.6,1.8-.6,1.9-.7,2-2.2,3.1-4.2,3.1-.3.3-.9,1.1-1.7,3.1,0,0-1.8,4.3-1.8,4.4,0,.2-.1.3-.2.5-1.8,4.6-3.9,9-5.8,13.6,0,0-3.5,6.9-3.6,6.8-.2.4-.4.7-.5,1,.4.3.7.7,1,1.1.6.8,1.4,2.7.3,4.9,0,0-.9,1.9-.9,1.8-1.5,3.1-4.6,3.1-5.8,2.9,0,0-8.1-.9-8.2-1,0,0-6.8-.6-6.9-.6-1.9,0-3.5-1-4.4-2.4-.7-1.1-1.2-2.9,0-5.3,0,0,1-2,1-2.1,1.1-2.2,3.1-3.4,5.4-3.4.2-.2.6-.5,1-1.2.3-.5.8-1.1,1.2-2,4.4-8.1,8.8-16.2,13.2-24.3.2-.3.3-.6.4-.9-.3-.3-.6-.6-.9-.9-.3-.5-.7-1.2-.6-2.2,0-.5.2-1.1.5-1.7,0,0,.8-1.5.8-1.5,1.3-2.5,3.7-2.8,4.7-2.7h0Z"/>
  </g>
  <path class="st1" d="M113.1,70.2c-2.1.2-4.3,0-5.8-.7-1,.9-2.8,1.6-4.9,1.8-4.8.5-9.6,1-14.3,1.5-2.2.2-4.3,0-5.8-.9-.9-.5-2.3-1.6-1.4-3.4.3-.6.4-.9.7-1.5.8-1.9,2.9-2.5,4.6-2.7.8-.6,2.1-2.3,2.9-3.3,7.5-10.3,13.6-21.1,18.6-32.8.6-1.7,2.1-3.2,4.2-3.5,2.3-.3,3.4-.5,5.7-.9,1.5-.3,3.3.4,4.7,1.1,1.1.5,2.5,1.5,3,3.2,0,0,0,0,0,.1,2.6,10,5.2,20.1,7.5,30.2.1.5.3,1.1.4,1.7.4.1.8.2,1.1.4,1.8.8,2.5,1.9,2.2,3.2-.1.6-.2.9-.4,1.4-.6,2.3-4,2.9-5.4,3.1-5.9.6-11.7,1.3-17.6,1.9h0Z"/>
  <path class="st1" d="M152.2,26.9c-.6.2-1.4,1.4-1.4,3.6,0,1,.3,1.4.4,1.5.1,0,.6.2,2.4.3.9,0,2,0,3.1.1,1.1,0,2.4.2,3.7.3-.9-.4-1.7-1-2.4-1.8,0,0,0,0,0,0-1.1-1.4-2-2.3-2.8-2.9s-1.3-.9-1.6-1c-.4-.2-.6-.2-1.3,0h0ZM154,66.2c-2.4.3-4.9.3-7.3,0-.9.6-2.3,1-4,1.2-1.1.1-1.7.2-2.9.3-2,.2-4.1,0-5.7-.5-1.2-.4-2.6-1.1-3.1-2.4-1.4-3.3-2.7-6.7-4-10-.3-.7-.3-1.3-.2-1.7.1-.6.6-1.8,2.1-2.8,1-.7,1.6-1,2.6-1.7,0,0,0,0,.1,0,.4-.3,1.4-.9,3.1-1.2,1.9-.4,6-.3,7.9,2.6,0,0,0,0,0,0,0,0,0,0,0,0,1.8,3.1,4.7,6.2,8.5,5.7,2.1-.3,3.8-2,4-4.2,0-1,0-1.5-.1-1.7-.9-.3-3.6-.5-5.3-.7-8.4-1-18.3-4.2-17.6-14.8.6-8.9,7.2-17.4,15.2-21.3,1.9-.9,3.9-1.5,5.9-1.6.6-1.5,1.6-2.7,3-3.5.6-.4.9-.6,1.6-1,2.2-1.4,4.1-1.2,5.1-.9,1.7.4,3,1.7,3.7,3.6,1.6,4.1,3.1,8.3,4.7,12.4.3.8.4,1.5.5,2.2.1,1.5-.3,2.9-1.2,4.2-.7.9-1.1,1.4-1.8,2.3-.5.6-1.4,1.5-2.8,2.1-.8.3-1.8.5-2.7.5,7.1,1.5,11.9,7.8,11.9,14.9,0,12-11.1,16.4-21.1,18.1h0Z"/>
  <g class="st4">
    <g class="st4">
      <path class="st3" d="M181,50.1v-1l1.6-1.3c1.1-.9,1.6-1.5,1.6-2.4s-.4-1.1-1-1.1-1,.4-1,1.1,0,.4,0,.6l-1.2-.2c0-.2,0-.4,0-.6,0-1.3.9-2.2,2.3-2.2s2.2.9,2.2,2.2-.4,1.8-1.3,2.6c-.3.3-.8.7-1.3,1,.5,0,.8,0,2.6,0v1.2h-4.5Z"/>
      <path class="st3" d="M188.5,50.3c-1.5,0-2.4-1.2-2.4-3.6s.9-3.5,2.4-3.5,2.3,1.5,2.3,3.6-.9,3.5-2.4,3.5ZM188.5,44.3c-.8,0-1.2.8-1.2,2.3s.4,2.4,1.2,2.4,1.2-.8,1.2-2.3-.4-2.4-1.2-2.4Z"/>
      <path class="st3" d="M191.5,50.1v-1l1.6-1.3c1.1-.9,1.6-1.5,1.6-2.4s-.4-1.1-1-1.1-1,.4-1,1.1,0,.4,0,.6l-1.2-.2c0-.2,0-.4,0-.6,0-1.3.9-2.2,2.3-2.2s2.2.9,2.2,2.2-.4,1.8-1.3,2.6c-.3.3-.8.7-1.3,1,.5,0,.8,0,2.6,0v1.2h-4.5Z"/>
      <path class="st3" d="M199.6,45.5c1.2,0,1.9.9,1.9,2.4s-.8,2.4-2.3,2.4-2.4-1.3-2.4-3.5.9-3.7,2.6-3.7,1.6.6,2,1.5l-1,.6c-.2-.5-.5-.9-1-.9-.7,0-1.3.3-1.4,2,.3-.5.9-.8,1.6-.8ZM199.2,49.1c.7,0,1.1-.4,1.1-1.2s-.5-1.2-1.1-1.2-1.2.4-1.2,1.2.5,1.3,1.2,1.3Z"/>
    </g>
  </g>
  <g class="st4">
    <g class="st4">
      <path class="st3" d="M182.6,41.4v-5.7h-1.8v-1.3h4.9v1.3h-1.8v5.7h-1.2Z"/>
      <path class="st3" d="M188.2,41.4v-2.7l-2.4-4.3h1.5c1.1,1.9,1.3,2.4,1.6,2.9.2-.5.5-1,1.6-2.9h1.4l-2.4,4.3v2.7h-1.2Z"/>
      <path class="st3" d="M192.3,41.4v-7h2.5c1.2,0,1.7,0,2,.3.5.3.8,1,.8,1.8s-.3,1.5-.8,1.9c-.4.2-1,.4-1.8.4h-1.4v2.6h-1.2ZM195,37.5c.5,0,.8,0,1,0,.3-.1.4-.4.4-.8s-.1-.6-.3-.7c-.2-.2-.5-.2-1.1-.2h-1.5v1.8h1.4Z"/>
      <path class="st3" d="M198.4,41.4v-7h4.6v1.3h-3.4v1.5h3.1v1.2h-3.1v1.7h3.6v1.3h-4.8Z"/>
      <path class="st3" d="M208.4,39.5c0,1.2-.9,2.1-2.3,2.1s-2.1-.6-2.3-1.9l1.2-.4c.2.7.6,1.1,1.1,1.1s1.2-.4,1.2-1-.5-1-1.4-1-.3,0-.4,0v-1.1c0,0,.2,0,.3,0,1,0,1.4-.3,1.4-.9s-.4-.9-1-.9-1,.5-1.1,1.1l-1.1-.4c.3-1.1.9-1.9,2.3-1.9s2.1.7,2.1,1.9-.3,1.2-1.1,1.5c.9.1,1.3.7,1.3,1.7Z"/>
    </g>
  </g>
</svg>