<?xml version="1.0" standalone="no"?>
<!DOCTYPE svg PUBLIC "-//W3C//DTD SVG 20010904//EN"
 "http://www.w3.org/TR/2001/REC-SVG-20010904/DTD/svg10.dtd">
<svg version="1.0" xmlns="http://www.w3.org/2000/svg"
 width="300.000000pt" height="226.000000pt" viewBox="0 0 300.000000 226.000000"
 preserveAspectRatio="xMidYMid meet">
<metadata>
Created by potrace 1.10, written by Peter Selinger 2001-2011
</metadata>
<g transform="translate(0.000000,226.000000) scale(0.050000,-0.050000)"
fill="#000000" stroke="none">
<path d="M2463 3810 c-71 -80 -76 -101 -33 -117 40 -16 25 -53 -173 -408 -501
-899 -772 -1273 -1034 -1428 -95 -56 -209 -127 -253 -157 -44 -30 -90 -58
-101 -62 -122 -46 -425 -249 -406 -272 43 -52 127 -23 421 146 275 158 356
189 305 119 -111 -154 -557 -829 -589 -890 -114 -224 72 -288 376 -128 248
131 314 181 953 714 278 232 302 247 340 221 59 -42 137 -35 329 31 343 116
922 204 922 140 0 -12 -61 -104 -136 -205 -231 -311 -427 -615 -420 -650 19
-102 117 -54 439 214 457 380 517 468 434 637 l-41 87 54 81 c29 45 132 186
227 314 95 128 217 298 272 378 149 220 162 201 70 -105 -235 -779 -261 -1145
-87 -1211 228 -86 470 76 836 561 255 338 292 370 292 253 0 -235 223 -156
236 83 23 423 -155 414 -481 -24 -534 -717 -708 -880 -784 -733 -122 236 162
1322 539 2058 130 256 131 263 39 263 -62 0 -77 -10 -125 -91 -296 -496 -840
-1271 -1175 -1676 l-101 -122 -159 6 c-172 6 -329 -14 -634 -81 -107 -23 -201
-37 -208 -29 -8 7 120 143 284 301 310 302 338 352 195 352 -72 0 -839 -575
-976 -731 -20 -23 -466 -393 -760 -630 -234 -189 -529 -379 -589 -379 -67 0
35 198 307 594 100 146 241 350 312 454 140 204 130 197 890 689 611 395 1210
842 1210 902 0 95 -147 60 -280 -67 -266 -252 -1421 -1059 -1460 -1020 -11 11
27 83 92 178 335 484 818 1359 804 1456 -11 76 -99 69 -173 -16z m1237 -2203
c0 -64 -194 -287 -249 -287 -20 0 32 82 129 205 94 120 120 138 120 82z"/>
<path d="M5369 2951 c-63 -96 7 -173 82 -89 27 29 54 38 89 31 83 -17 117 15
71 66 -56 62 -199 58 -242 -8z"/>
</g>
</svg>
